<svg viewBox="55 55 90 80" xmlns="http://www.w3.org/2000/svg">
  <!-- Outer fireplace frame -->
  <path d="M 60 130 L 60 90 Q 60 60, 90 60 L 110 60 Q 140 60, 140 90 L 140 130 Z" 
        fill="#2C3E50" stroke="none"/>
  
  <!-- Inner opening -->
  <path d="M 75 130 L 75 95 Q 75 75, 95 75 L 105 75 Q 125 75, 125 95 L 125 130 Z" 
        fill="#1A252F" stroke="none"/>
  
  <!-- Abstract flame shapes -->
  <g>
    <!-- Main flame -->
    <path d="M 100 115 Q 88 105, 88 95 Q 88 85, 95 78 Q 100 85, 100 92 Q 100 85, 105 78 Q 112 85, 112 95 Q 112 105, 100 115 Z" 
          fill="#FF6B35" opacity="0.9"/>
    
    <!-- Inner flame highlight -->
    <path d="M 100 110 Q 93 103, 93 95 Q 93 89, 97 83 Q 100 88, 100 93 Q 100 88, 103 83 Q 107 89, 107 95 Q 107 103, 100 110 Z" 
          fill="#FFB347" opacity="0.8"/>
    
    <!-- Flame glow/ember -->
    <circle cx="100" cy="118" r="10" fill="#D84315" opacity="0.7"/>
    <circle cx="100" cy="118" r="6" fill="#FF8A65" opacity="0.9"/>
  </g>
</svg>
